<svg xmlns="http://www.w3.org/2000/svg" xmlns:xlink="http://www.w3.org/1999/xlink" width="960" zoomAndPan="magnify" viewBox="0 0 720 667.499985" height="890" preserveAspectRatio="xMidYMid meet" version="1.0"><defs><clipPath id="6db9ebbd69"><path d="M 286.78125 181 L 444.164062 181 L 444.164062 319 L 286.78125 319 Z M 286.78125 181 " clip-rule="nonzero"/></clipPath><clipPath id="a05d7b7b66"><path d="M 501.042969 177 L 638.941406 177 L 638.941406 323.558594 L 501.042969 323.558594 Z M 501.042969 177 " clip-rule="nonzero"/></clipPath><clipPath id="f5ff4af578"><path d="M 569 177 L 638.941406 177 L 638.941406 323.558594 L 569 323.558594 Z M 569 177 " clip-rule="nonzero"/></clipPath><clipPath id="ada56e242f"><path d="M 179 500 L 180 500 L 180 501.28125 L 179 501.28125 Z M 179 500 " clip-rule="nonzero"/></clipPath><clipPath id="99505c384d"><path d="M 172.652344 356.636719 L 330.785156 356.636719 L 330.785156 498 L 172.652344 498 Z M 172.652344 356.636719 " clip-rule="nonzero"/></clipPath><clipPath id="6acd7aebb9"><path d="M 414.515625 357 L 545.667969 357 L 545.667969 501 L 414.515625 501 Z M 414.515625 357 " clip-rule="nonzero"/></clipPath></defs><path fill="#ffffff" d="M 185.140625 192.246094 C 140 165.703125 82.640625 198.121094 82.140625 250.457031 C 81.652344 301.5625 135.738281 334.574219 180.777344 312.078125 L 131.605469 239.730469 L 131.605469 284.511719 C 131.605469 289.472656 122.109375 289.472656 122.109375 284.511719 L 122.109375 224.476562 C 122.109375 220.539062 129.425781 220.214844 131.5 223.636719 L 187.550781 308.222656 C 229.65625 281.101562 229.085938 218.082031 185.140625 192.246094 Z M 178.808594 277 L 169.285156 262.449219 L 169.285156 222.621094 C 169.285156 218.90625 178.808594 218.90625 178.808594 222.621094 Z M 178.808594 277 " fill-opacity="1" fill-rule="nonzero"/><path fill="#53c1de" d="M 379.527344 249.988281 C 379.527344 242.464844 373.234375 236.367188 365.472656 236.367188 C 357.710938 236.367188 351.421875 242.464844 351.421875 249.988281 C 351.421875 257.507812 357.710938 263.605469 365.472656 263.605469 C 373.234375 263.605469 379.527344 257.507812 379.527344 249.988281 Z M 379.527344 249.988281 " fill-opacity="1" fill-rule="nonzero"/><g clip-path="url(#6db9ebbd69)"><path fill="#53c1de" d="M 411.117188 224.699219 C 414.085938 213.011719 417.816406 191.339844 404.664062 183.988281 C 391.574219 176.675781 374.539062 190.691406 365.546875 199.109375 C 356.578125 190.777344 339.066406 176.816406 325.925781 184.1875 C 312.84375 191.53125 316.878906 212.84375 319.910156 224.605469 C 307.707031 227.964844 286.78125 235.203125 286.78125 249.988281 C 286.78125 264.730469 307.683594 272.601562 319.816406 275.957031 C 316.773438 287.785156 312.9375 308.792969 326.039062 316.121094 C 339.230469 323.488281 356.6875 309.863281 365.765625 301.355469 C 374.816406 309.820312 391.6875 323.535156 404.777344 316.191406 C 417.910156 308.824219 414.492188 287.441406 411.457031 275.609375 C 423.21875 272.246094 444.164062 264.546875 444.164062 249.988281 C 444.164062 235.34375 423.128906 228.046875 411.117188 224.699219 Z M 409.625 269.339844 C 407.632812 263.230469 404.945312 256.730469 401.65625 250.019531 C 404.796875 243.464844 407.378906 237.050781 409.316406 230.976562 C 418.121094 233.453125 437.441406 239.109375 437.441406 249.988281 C 437.441406 260.96875 418.902344 266.675781 409.625 269.339844 Z M 401.410156 310.550781 C 391.640625 316.03125 377.132812 302.914062 370.445312 296.683594 C 374.882812 291.980469 379.3125 286.515625 383.636719 280.445312 C 391.246094 279.792969 398.433594 278.722656 404.953125 277.261719 C 407.089844 285.628906 411.21875 305.046875 401.410156 310.550781 Z M 329.398438 310.472656 C 319.628906 305.015625 324.09375 286.265625 326.335938 277.554688 C 332.78125 278.9375 339.917969 279.929688 347.542969 280.53125 C 351.898438 286.46875 356.457031 291.925781 361.054688 296.707031 C 355.375 302.03125 339.214844 315.957031 329.398438 310.472656 Z M 293.503906 249.988281 C 293.503906 238.964844 312.710938 233.351562 321.714844 230.882812 C 323.6875 237.089844 326.269531 243.582031 329.386719 250.144531 C 326.230469 256.808594 323.609375 263.402344 321.621094 269.683594 C 313.03125 267.300781 293.503906 261.015625 293.503906 249.988281 Z M 329.296875 189.828125 C 339.105469 184.324219 354.324219 197.726562 360.835938 203.757812 C 356.261719 208.515625 351.746094 213.933594 347.429688 219.839844 C 340.027344 220.503906 332.941406 221.570312 326.425781 223 C 323.984375 213.515625 319.496094 195.324219 329.296875 189.828125 Z M 388.449219 226.921875 C 393.46875 227.535156 398.28125 228.351562 402.796875 229.351562 C 401.441406 233.5625 399.75 237.96875 397.761719 242.484375 C 394.875 237.179688 391.777344 231.976562 388.449219 226.921875 Z M 365.546875 208.414062 C 368.648438 211.671875 371.753906 215.304688 374.8125 219.25 C 368.613281 218.964844 362.40625 218.964844 356.210938 219.246094 C 359.265625 215.339844 362.398438 211.707031 365.546875 208.414062 Z M 333.246094 242.480469 C 331.285156 237.980469 329.613281 233.554688 328.242188 229.28125 C 332.734375 228.308594 337.523438 227.511719 342.511719 226.910156 C 339.171875 231.953125 336.082031 237.152344 333.246094 242.480469 Z M 342.65625 273.53125 C 337.5 272.972656 332.640625 272.214844 328.152344 271.269531 C 329.539062 266.921875 331.253906 262.402344 333.253906 257.804688 C 336.128906 263.1875 339.265625 268.433594 342.65625 273.53125 Z M 365.734375 292.019531 C 362.546875 288.6875 359.371094 285 356.265625 281.035156 C 362.5 281.273438 368.742188 281.273438 374.972656 281.003906 C 371.910156 285.039062 368.816406 288.730469 365.734375 292.019531 Z M 397.824219 257.570312 C 399.929688 262.21875 401.703125 266.710938 403.109375 270.988281 C 398.546875 271.996094 393.621094 272.808594 388.429688 273.414062 C 391.78125 268.257812 394.929688 262.980469 397.824219 257.570312 Z M 379.886719 274.203125 C 370.351562 274.863281 360.761719 274.855469 351.222656 274.257812 C 345.804688 266.585938 340.980469 258.519531 336.816406 250.144531 C 340.960938 241.785156 345.75 233.734375 351.144531 226.074219 C 360.6875 225.375 370.289062 225.375 379.832031 226.078125 C 385.179688 233.738281 389.960938 241.769531 394.199219 250.050781 C 390.011719 258.402344 385.195312 266.472656 379.886719 274.203125 Z M 401.304688 189.632812 C 411.117188 195.121094 406.75 214.597656 404.605469 223.070312 C 398.078125 221.609375 390.988281 220.523438 383.5625 219.847656 C 379.238281 213.878906 374.757812 208.453125 370.261719 203.753906 C 376.855469 197.59375 391.589844 184.203125 401.304688 189.632812 Z M 401.304688 189.632812 " fill-opacity="1" fill-rule="evenodd"/></g><g clip-path="url(#a05d7b7b66)"><path fill="#e23237" d="M 501.042969 201.289062 L 569.042969 177.105469 L 638.832031 200.914062 L 627.554688 290.777344 L 569.042969 323.121094 L 511.484375 291.199219 Z M 501.042969 201.289062 " fill-opacity="1" fill-rule="nonzero"/></g><g clip-path="url(#f5ff4af578)"><path fill="#b52e31" d="M 638.832031 200.914062 L 569.042969 177.105469 L 569.042969 323.121094 L 627.554688 290.777344 Z M 638.832031 200.914062 " fill-opacity="1" fill-rule="nonzero"/></g><path fill="#ffffff" d="M 569.148438 194.171875 L 526.773438 288.351562 L 542.585938 288.03125 L 551.125 266.75 L 589.023438 266.75 L 598.304688 288.195312 L 613.378906 288.515625 Z M 569.253906 224.40625 L 583.589844 254.324219 L 556.75 254.324219 L 569.292969 224.40625 Z M 569.253906 224.40625 " fill-opacity="1" fill-rule="nonzero"/><g clip-path="url(#ada56e242f)"><path fill="#000000" d="M 179.445312 501.0625 L 179.441406 501.011719 L 179.433594 500.992188 Z M 179.445312 501.0625 " fill-opacity="1" fill-rule="nonzero"/></g><path fill="#41b883" d="M 177.285156 361.546875 L 251.390625 489.171875 L 325.496094 361.546875 L 295.851562 361.546875 L 251.390625 438.121094 L 206.554688 361.546875 Z M 177.285156 361.546875 " fill-opacity="1" fill-rule="nonzero"/><path fill="#35495e" d="M 206.554688 361.546875 L 251.390625 438.496094 L 295.859375 361.546875 L 268.433594 361.546875 L 251.390625 391.140625 L 233.972656 361.546875 Z M 206.554688 361.546875 " fill-opacity="1" fill-rule="nonzero"/><g clip-path="url(#99505c384d)"><path fill="#000000" d="M 251.390625 497.351562 C 249.613281 497.351562 247.976562 496.398438 247.101562 494.851562 L 173.351562 363.988281 C 172.496094 362.46875 172.511719 360.605469 173.390625 359.097656 C 174.273438 357.59375 175.886719 356.671875 177.636719 356.671875 L 205.617188 356.671875 C 205.792969 356.652344 205.984375 356.636719 206.175781 356.636719 L 233.976562 356.636719 C 235.742188 356.636719 237.359375 357.582031 238.238281 359.097656 L 251.390625 381.925781 L 264.5625 359.097656 C 265.4375 357.582031 267.066406 356.636719 268.820312 356.636719 L 296.625 356.636719 C 296.835938 356.636719 297.039062 356.652344 297.242188 356.675781 L 325.144531 356.675781 C 326.894531 356.675781 328.507812 357.605469 329.386719 359.105469 C 330.261719 360.609375 330.28125 362.476562 329.425781 363.992188 L 255.671875 494.851562 C 254.804688 496.398438 253.167969 497.351562 251.390625 497.351562 Z M 186.046875 366.488281 L 251.390625 482.4375 L 316.730469 366.496094 L 296.605469 366.496094 C 296.394531 366.496094 296.191406 366.480469 295.988281 366.453125 L 271.667969 366.453125 L 255.652344 394.210938 C 254.773438 395.738281 253.148438 396.671875 251.390625 396.671875 C 249.625 396.671875 248.007812 395.730469 247.128906 394.210938 L 231.132812 366.453125 L 206.730469 366.453125 C 206.554688 366.472656 206.363281 366.488281 206.175781 366.488281 Z M 186.046875 366.488281 " fill-opacity="1" fill-rule="nonzero"/></g><g clip-path="url(#6acd7aebb9)"><path fill="#8cc84b" d="M 474.039062 358.5625 C 477.640625 356.519531 482.234375 356.511719 485.746094 358.5625 L 539.535156 388.902344 C 542.898438 390.792969 545.148438 394.546875 545.117188 398.425781 L 545.117188 459.257812 C 545.140625 463.296875 542.667969 467.132812 539.121094 468.988281 L 485.621094 499.1875 C 484.707031 499.695312 483.742188 500.070312 482.722656 500.316406 C 481.707031 500.566406 480.679688 500.675781 479.632812 500.644531 C 478.589844 500.617188 477.566406 500.449219 476.566406 500.148438 C 475.566406 499.84375 474.621094 499.414062 473.734375 498.859375 L 457.683594 489.578125 C 456.585938 488.925781 455.359375 488.40625 454.582031 487.347656 C 455.269531 486.425781 456.484375 486.308594 457.476562 485.90625 C 459.707031 485.191406 461.753906 484.101562 463.804688 482.949219 C 464.324219 482.589844 464.960938 482.722656 465.453125 483.046875 L 479.144531 490.96875 C 480.121094 491.53125 481.113281 490.789062 481.949219 490.316406 L 534.480469 460.652344 C 535.128906 460.339844 535.492188 459.652344 535.4375 458.941406 L 535.4375 398.695312 C 535.507812 397.886719 535.042969 397.144531 534.3125 396.816406 L 480.945312 366.75 C 480.632812 366.53125 480.28125 366.421875 479.898438 366.421875 C 479.515625 366.421875 479.167969 366.527344 478.851562 366.746094 L 425.5625 396.875 C 424.84375 397.203125 424.347656 397.933594 424.4375 398.746094 L 424.4375 458.992188 C 424.375 459.703125 424.753906 460.375 425.40625 460.679688 L 439.644531 468.722656 C 442.320312 470.164062 445.605469 470.976562 448.550781 469.917969 C 449.195312 469.675781 449.785156 469.339844 450.328125 468.917969 C 450.871094 468.492188 451.339844 467.996094 451.730469 467.429688 C 452.121094 466.859375 452.417969 466.25 452.621094 465.589844 C 452.824219 464.929688 452.925781 464.257812 452.921875 463.570312 L 452.933594 403.683594 C 452.871094 402.796875 453.710938 402.0625 454.570312 402.152344 L 461.414062 402.152344 C 462.316406 402.128906 463.023438 403.085938 462.902344 403.976562 L 462.886719 464.238281 C 462.890625 469.59375 460.695312 475.414062 455.746094 478.042969 C 449.648438 481.195312 442.109375 480.535156 436.082031 477.5 L 420.773438 469.03125 C 417.167969 467.226562 414.75 463.335938 414.773438 459.296875 L 414.773438 398.464844 C 414.78125 397.476562 414.917969 396.507812 415.1875 395.554688 C 415.453125 394.605469 415.839844 393.703125 416.347656 392.855469 C 416.855469 392.007812 417.464844 391.242188 418.175781 390.554688 C 418.890625 389.871094 419.679688 389.292969 420.546875 388.820312 Z M 489.546875 400.730469 C 497.324219 400.277344 505.652344 400.429688 512.648438 404.265625 C 518.066406 407.203125 521.070312 413.367188 521.167969 419.398438 C 521.015625 420.207031 520.171875 420.660156 519.394531 420.601562 C 517.144531 420.59375 514.882812 420.632812 512.621094 420.585938 C 511.664062 420.621094 511.109375 419.738281 510.988281 418.890625 C 510.339844 416.007812 508.769531 413.15625 506.058594 411.765625 C 501.894531 409.675781 497.066406 409.78125 492.527344 409.824219 C 489.214844 410.007812 485.652344 410.289062 482.847656 412.238281 C 480.683594 413.714844 480.035156 416.742188 480.804688 419.09375 C 481.527344 420.820312 483.523438 421.375 485.148438 421.886719 C 494.523438 424.339844 504.453125 424.140625 513.652344 427.328125 C 517.460938 428.644531 521.183594 431.203125 522.488281 435.191406 C 524.191406 440.535156 523.449219 446.921875 519.652344 451.214844 C 516.570312 454.746094 512.085938 456.621094 507.605469 457.710938 C 501.648438 459.039062 495.46875 459.070312 489.421875 458.476562 C 483.734375 457.828125 477.816406 456.332031 473.425781 452.457031 C 469.667969 449.195312 467.839844 444.113281 468.023438 439.210938 C 468.066406 438.378906 468.890625 437.804688 469.6875 437.871094 L 476.441406 437.871094 C 477.351562 437.808594 478.019531 438.59375 478.0625 439.449219 C 478.484375 442.152344 479.515625 445.082031 481.910156 446.65625 C 486.53125 449.640625 492.324219 449.433594 497.613281 449.519531 C 501.996094 449.324219 506.914062 449.265625 510.492188 446.363281 C 512.382812 444.710938 512.9375 441.949219 512.429688 439.570312 C 511.875 437.558594 509.726562 436.628906 507.925781 435.964844 C 498.671875 433.035156 488.628906 434.101562 479.464844 430.785156 C 475.746094 429.46875 472.148438 426.980469 470.71875 423.15625 C 468.722656 417.746094 469.636719 411.046875 473.839844 406.902344 C 477.894531 402.777344 483.835938 401.1875 489.464844 400.621094 Z M 489.546875 400.730469 " fill-opacity="1" fill-rule="nonzero"/></g></svg>