<svg xmlns="http://www.w3.org/2000/svg" xmlns:xlink="http://www.w3.org/1999/xlink" width="960" zoomAndPan="magnify" viewBox="0 0 720 667.499985" height="890" preserveAspectRatio="xMidYMid meet" version="1.0"><defs><clipPath id="077bff0bbb"><path d="M 231.230469 204.730469 L 489 204.730469 L 489 462.539062 L 231.230469 462.539062 Z M 231.230469 204.730469 " clip-rule="nonzero"/></clipPath></defs><g clip-path="url(#077bff0bbb)"><path fill="#ffffff" d="M 359.996094 204.730469 C 288.882812 204.730469 231.230469 262.382812 231.230469 333.496094 C 231.230469 404.609375 288.882812 462.257812 359.996094 462.257812 C 431.109375 462.257812 488.757812 404.609375 488.757812 333.496094 C 488.757812 262.382812 431.109375 204.730469 359.996094 204.730469 Z M 359.996094 452.503906 C 294.269531 452.503906 240.984375 399.222656 240.984375 333.496094 C 240.984375 267.769531 294.269531 214.484375 359.996094 214.484375 C 425.722656 214.484375 479.003906 267.769531 479.003906 333.496094 C 479.003906 399.222656 425.722656 452.503906 359.996094 452.503906 Z M 359.996094 452.503906 " fill-opacity="1" fill-rule="nonzero"/></g><path fill="#ffffff" d="M 344.882812 396.609375 C 341.652344 396.921875 339.074219 397.277344 336.484375 397.398438 C 321.789062 398.09375 310.914062 392.300781 304.316406 378.796875 C 302.214844 374.492188 299.527344 370.433594 296.726562 366.539062 C 295.042969 364.195312 292.6875 362.316406 290.511719 360.367188 L 290.484375 360.34375 C 289.140625 359.160156 289.734375 356.945312 291.5 356.648438 C 293.578125 356.296875 295.511719 356.671875 297.398438 357.152344 C 303.304688 358.65625 307.097656 362.84375 310.117188 367.851562 C 316.949219 379.179688 328.71875 383.90625 341.441406 380.53125 C 343.601562 379.957031 344.550781 379.027344 345.023438 376.671875 C 345.570312 373.925781 346.316406 371.214844 347.117188 368.457031 C 347.234375 368.050781 347.3125 367.632812 347.34375 367.210938 C 347.378906 366.789062 347.371094 366.371094 347.316406 365.949219 C 347.265625 365.527344 347.171875 365.117188 347.035156 364.71875 C 346.902344 364.316406 346.726562 363.933594 346.511719 363.566406 C 346.300781 363.203125 346.050781 362.859375 345.769531 362.546875 C 345.484375 362.230469 345.175781 361.945312 344.835938 361.695312 C 344.492188 361.441406 344.132812 361.226562 343.746094 361.050781 C 343.363281 360.871094 342.964844 360.734375 342.554688 360.636719 L 342.480469 360.621094 C 329.28125 357.460938 317.875 351.578125 310.527344 339.515625 C 306.597656 333.066406 304.65625 325.957031 304.753906 318.554688 C 304.867188 310.15625 305.609375 301.738281 306.574219 293.386719 C 307.253906 287.503906 309.980469 282.296875 314.207031 278.066406 C 315.683594 276.59375 315.804688 275.359375 315.09375 273.449219 C 312.183594 265.636719 312.6875 257.804688 315.273438 249.972656 C 316.003906 247.761719 317.039062 247.445312 319.152344 248.113281 C 325.695312 250.171875 330.574219 254.425781 334.863281 259.527344 L 334.90625 259.578125 C 335.445312 260.226562 336.066406 260.777344 336.773438 261.238281 C 337.476562 261.699219 338.234375 262.046875 339.042969 262.28125 C 339.851562 262.515625 340.679688 262.625 341.519531 262.613281 C 342.363281 262.597656 343.183594 262.460938 343.984375 262.203125 C 357.558594 257.75 378.152344 257.691406 390.957031 262.097656 C 391.761719 262.371094 392.585938 262.519531 393.4375 262.539062 C 394.285156 262.5625 395.121094 262.460938 395.9375 262.230469 C 396.753906 262 397.519531 261.652344 398.234375 261.191406 C 398.945312 260.730469 399.574219 260.171875 400.121094 259.519531 L 400.160156 259.472656 C 404.457031 254.375 409.359375 250.152344 415.894531 248.085938 C 418.089844 247.394531 419.023438 247.921875 419.71875 250.054688 C 422.265625 257.886719 422.703125 265.671875 419.941406 273.570312 C 419.554688 274.679688 419.570312 276.613281 420.261719 277.316406 C 426.125 283.261719 428.6875 290.640625 429.339844 298.636719 C 429.96875 306.363281 430.652344 314.21875 429.933594 321.890625 C 428.066406 341.84375 415.9375 353.464844 397.488281 359.242188 C 395.910156 359.734375 394.308594 360.148438 392.671875 360.535156 C 392.246094 360.636719 391.832031 360.78125 391.4375 360.96875 C 391.042969 361.152344 390.671875 361.378906 390.324219 361.644531 C 389.972656 361.910156 389.65625 362.207031 389.371094 362.539062 C 389.085938 362.871094 388.839844 363.226562 388.628906 363.609375 C 388.417969 363.996094 388.25 364.394531 388.121094 364.8125 C 387.996094 365.234375 387.914062 365.660156 387.878906 366.097656 C 387.839844 366.53125 387.851562 366.96875 387.90625 367.402344 C 387.960938 367.835938 388.058594 368.257812 388.203125 368.671875 C 390.714844 375.953125 390.332031 383.734375 390.292969 391.460938 C 390.285156 393.238281 390.277344 395.015625 390.273438 396.796875 C 390.273438 397.53125 390.234375 398.261719 390.160156 398.992188 C 390.089844 399.722656 389.980469 400.449219 389.835938 401.167969 C 389.691406 401.886719 389.511719 402.597656 389.296875 403.300781 C 389.082031 404 388.832031 404.691406 388.550781 405.367188 C 388.269531 406.046875 387.957031 406.707031 387.609375 407.355469 C 387.261719 408.003906 386.882812 408.632812 386.476562 409.242188 C 386.066406 409.851562 385.628906 410.4375 385.164062 411.003906 C 384.695312 411.574219 384.203125 412.113281 383.683594 412.632812 C 383.164062 413.152344 382.621094 413.644531 382.050781 414.109375 C 381.484375 414.574219 380.894531 415.011719 380.285156 415.417969 C 379.671875 415.824219 379.042969 416.199219 378.398438 416.546875 C 377.75 416.890625 377.085938 417.207031 376.40625 417.484375 C 375.730469 417.765625 375.039062 418.011719 374.335938 418.226562 C 373.632812 418.4375 372.921875 418.617188 372.203125 418.757812 C 371.484375 418.902344 370.757812 419.007812 370.027344 419.082031 C 369.296875 419.152344 368.566406 419.1875 367.832031 419.1875 L 367.324219 419.1875 C 366.589844 419.1875 365.855469 419.152344 365.125 419.082031 C 364.394531 419.007812 363.667969 418.902344 362.945312 418.757812 C 362.226562 418.613281 361.511719 418.4375 360.808594 418.222656 C 360.105469 418.007812 359.414062 417.761719 358.738281 417.480469 C 358.058594 417.199219 357.394531 416.886719 356.746094 416.539062 C 356.097656 416.191406 355.46875 415.816406 354.855469 415.40625 C 354.246094 414.996094 353.65625 414.5625 353.085938 414.09375 C 352.519531 413.628906 351.976562 413.136719 351.457031 412.613281 C 350.933594 412.09375 350.441406 411.550781 349.976562 410.984375 C 349.511719 410.414062 349.074219 409.824219 348.664062 409.214844 C 348.253906 408.601562 347.878906 407.972656 347.53125 407.324219 C 347.183594 406.675781 346.871094 406.011719 346.589844 405.335938 C 346.308594 404.65625 346.0625 403.964844 345.847656 403.261719 C 345.632812 402.558594 345.457031 401.84375 345.3125 401.125 C 345.167969 400.402344 345.0625 399.675781 344.988281 398.945312 C 344.917969 398.214844 344.882812 397.480469 344.882812 396.746094 Z M 344.882812 396.609375 " fill-opacity="1" fill-rule="nonzero"/></svg>